<svg xmlns="http://www.w3.org/2000/svg" viewBox="0 0 30.39166768391927 8">

    <path
        d="
        M0 0 h1 v1 h-1
        M3 0 h2 v1 h-2
        M7 0 h1 v1 h-1
        M0 7 h1 v1 h-1
        M7 7 h1 v1 h-1
    z"
        fill="rgb(0, 0, 0)" shape-rendering="crispEdges" />

    <path
        d="
        M1 0 h2 v1 h-2
        M5 0 h2 v1 h-2
        M0 1 h1 v1 h-1
        M3 1 h2 v1 h-2
        M7 1 h1 v1 h-1
        M0 4 h1 v3 h-1
        M7 4 h1 v3 h-1
        M1 7 h1 v1 h-1
        M3 7 h2 v1 h-2
        M6 7 h1 v1 h-1
    z"
        fill="rgb(0, 0, 72)" shape-rendering="crispEdges" />

    <path
        d="
        M1 1 h2 v1 h-2
        M5 1 h2 v1 h-2
        M0 2 h1 v2 h-1
        M3 2 h2 v2 h-2
        M7 2 h1 v2 h-1
        M1 4 h2 v1 h-1 v2 h-1
        M7 4 h-2 v1 h1 v2 h1
        M3 6 h2 v1 h-2
        M2 7 h1 v1 h-1
        M5 7 h1 v1 h-1
    z"
        fill="rgb(0, 0, 193)" shape-rendering="crispEdges" />

    <path
        d="
        M1 2 h2 v2 h-2
        M5 2 h2 v2 h-2
        M3 4 h2 v2 h-2 M5 5 h1 v2 h-1 M2 5 h1 v2 h-1
    z"
        fill="rgb(0, 255, 255)" shape-rendering="crispEdges" />

    <svg xmlns="http://www.w3.org/2000/svg" x="9" y="1" width="21.39166768391927" height="6" viewBox="0 11.25 128.35000610351562 36" data-asc="0.935">
        <defs />
        <g>
            <g class="tw-fill-marketing-logo">
                <g class="tw-fill-marketing-logo" transform="translate(0, 0)">
                    <path
                        d="M12.50 46.75Q11.70 46.75 11.22 46.33Q10.75 45.90 10.55 45.30L0.05 13.25Q0 13 0 12.80Q0 12.40 0.30 12.07Q0.60 11.75 1.05 11.75L6.30 11.75Q7.05 11.75 7.48 12.17Q7.90 12.60 8 12.95L15.80 37.40L23.55 12.95Q23.70 12.60 24.10 12.17Q24.50 11.75 25.25 11.75L30.50 11.75Q30.95 11.75 31.25 12.07Q31.55 12.40 31.55 12.80Q31.55 13 31.50 13.25L21 45.30Q20.85 45.90 20.38 46.33Q19.90 46.75 19.05 46.75L12.50 46.75ZM43.65 47.25Q41 47.25 38.90 46.23Q36.80 45.20 35.55 43.45Q34.30 41.70 34.30 39.55Q34.30 36 37.18 33.95Q40.05 31.90 44.75 31.15L51.30 30.20L51.30 29.30Q51.30 27.35 50.40 26.30Q49.50 25.25 47.25 25.25Q45.60 25.25 44.60 25.90Q43.60 26.55 43.05 27.60Q42.65 28.25 41.90 28.25L37.15 28.25Q36.60 28.25 36.30 27.93Q36 27.60 36.05 27.15Q36.05 26.30 36.70 25.15Q37.35 24 38.70 22.88Q40.05 21.75 42.15 21Q44.25 20.25 47.30 20.25Q50.45 20.25 52.70 21Q54.95 21.75 56.30 23.10Q57.65 24.45 58.30 26.22Q58.95 28 58.95 30.05L58.95 45.50Q58.95 46.05 58.60 46.40Q58.25 46.75 57.70 46.75L52.80 46.75Q52.30 46.75 51.95 46.40Q51.60 46.05 51.60 45.50L51.60 43.65Q50.95 44.60 49.85 45.42Q48.75 46.25 47.23 46.75Q45.70 47.25 43.65 47.25M45.65 42.05Q47.30 42.05 48.60 41.35Q49.90 40.65 50.65 39.20Q51.40 37.75 51.40 35.55L51.40 34.70L46.75 35.45Q44.05 35.90 42.80 36.80Q41.55 37.70 41.55 39Q41.55 39.95 42.13 40.65Q42.70 41.35 43.65 41.70Q44.60 42.05 45.65 42.05ZM74.55 47.25Q71.65 47.25 69.42 45.92Q67.20 44.60 65.97 42.08Q64.75 39.55 64.75 35.95L64.75 22Q64.75 21.45 65.10 21.10Q65.45 20.75 65.95 20.75L71.25 20.75Q71.80 20.75 72.15 21.10Q72.50 21.45 72.50 22L72.50 35.65Q72.50 41.25 77.40 41.25Q79.75 41.25 81.13 39.77Q82.50 38.30 82.50 35.65L82.50 22Q82.50 21.45 82.85 21.10Q83.20 20.75 83.75 20.75L89.05 20.75Q89.55 20.75 89.90 21.10Q90.25 21.45 90.25 22L90.25 45.50Q90.25 46.05 89.90 46.40Q89.55 46.75 89.05 46.75L84.15 46.75Q83.60 46.75 83.25 46.40Q82.90 46.05 82.90 45.50L82.90 43.55Q81.60 45.35 79.55 46.30Q77.50 47.25 74.55 47.25ZM97.80 46.75Q97.25 46.75 96.90 46.40Q96.55 46.05 96.55 45.50L96.55 12.50Q96.55 11.95 96.90 11.60Q97.25 11.25 97.80 11.25L102.80 11.25Q103.30 11.25 103.65 11.60Q104 11.95 104 12.50L104 45.50Q104 46.05 103.65 46.40Q103.30 46.75 102.80 46.75L97.80 46.75ZM122.80 46.75Q119.70 46.75 117.50 45.73Q115.30 44.70 114.18 42.55Q113.05 40.40 113.05 37.15L113.05 26.65L109.15 26.65Q108.60 26.65 108.25 26.30Q107.90 25.95 107.90 25.40L107.90 22Q107.90 21.45 108.25 21.10Q108.60 20.75 109.15 20.75L113.05 20.75L113.05 12.50Q113.05 11.95 113.43 11.60Q113.80 11.25 114.30 11.25L119.20 11.25Q119.75 11.25 120.10 11.60Q120.45 11.95 120.45 12.50L120.45 20.75L126.70 20.75Q127.20 20.75 127.55 21.10Q127.90 21.45 127.90 22L127.90 25.40Q127.90 25.95 127.55 26.30Q127.20 26.65 126.70 26.65L120.45 26.65L120.45 36.55Q120.45 38.45 121.13 39.52Q121.80 40.60 123.50 40.60L127.15 40.60Q127.65 40.60 128 40.95Q128.35 41.30 128.35 41.80L128.35 45.50Q128.35 46.05 128 46.40Q127.65 46.75 127.15 46.75L122.80 46.75Z" />
                </g>
            </g>
        </g>
    </svg>

</svg>