<svg version="1.1" viewBox="0 0 800 200" xmlns="http://www.w3.org/2000/svg">

    <svg xmlns="http://www.w3.org/2000/svg" width="569.8437690734863125" height="150" viewBox="0 0 30.39166768391927 8">

        <path
            d="
            M0 0 h1 v1 h-1
            M3 0 h2 v1 h-2
            M7 0 h1 v1 h-1
            M0 7 h1 v1 h-1
            M7 7 h1 v1 h-1
        z"
            fill="rgb(0, 0, 0)" shape-rendering="crispEdges" />

        <path
            d="
            M1 0 h2 v1 h-2
            M5 0 h2 v1 h-2
            M0 1 h1 v1 h-1
            M3 1 h2 v1 h-2
            M7 1 h1 v1 h-1
            M0 4 h1 v3 h-1
            M7 4 h1 v3 h-1
            M1 7 h1 v1 h-1
            M3 7 h2 v1 h-2
            M6 7 h1 v1 h-1
        z"
            fill="rgb(0, 0, 72)" shape-rendering="crispEdges" />

        <path
            d="
            M1 1 h2 v1 h-2
            M5 1 h2 v1 h-2
            M0 2 h1 v2 h-1
            M3 2 h2 v2 h-2
            M7 2 h1 v2 h-1
            M1 4 h2 v1 h-1 v2 h-1
            M7 4 h-2 v1 h1 v2 h1
            M3 6 h2 v1 h-2
            M2 7 h1 v1 h-1
            M5 7 h1 v1 h-1
        z"
            fill="rgb(0, 0, 193)" shape-rendering="crispEdges" />

        <path
            d="
            M1 2 h2 v2 h-2
            M5 2 h2 v2 h-2
            M3 4 h2 v2 h-2 M5 5 h1 v2 h-1 M2 5 h1 v2 h-1
        z"
            fill="rgb(0, 255, 255)" shape-rendering="crispEdges" />

        <svg xmlns="http://www.w3.org/2000/svg" x="9" y="1" width="21.39166768391927" height="6" viewBox="0 11.25 128.35000610351562 36" data-asc="0.935">
            <defs />
            <g>
                <g class="tw-fill-text-alt2">
                    <g class="tw-fill-text-alt2" transform="translate(0, 0)">
                        <path
                            d="M12.50 46.75Q11.70 46.75 11.22 46.33Q10.75 45.90 10.55 45.30L0.05 13.25Q0 13 0 12.80Q0 12.40 0.30 12.07Q0.60 11.75 1.05 11.75L6.30 11.75Q7.05 11.75 7.48 12.17Q7.90 12.60 8 12.95L15.80 37.40L23.55 12.95Q23.70 12.60 24.10 12.17Q24.50 11.75 25.25 11.75L30.50 11.75Q30.95 11.75 31.25 12.07Q31.55 12.40 31.55 12.80Q31.55 13 31.50 13.25L21 45.30Q20.85 45.90 20.38 46.33Q19.90 46.75 19.05 46.75L12.50 46.75ZM43.65 47.25Q41 47.25 38.90 46.23Q36.80 45.20 35.55 43.45Q34.30 41.70 34.30 39.55Q34.30 36 37.18 33.95Q40.05 31.90 44.75 31.15L51.30 30.20L51.30 29.30Q51.30 27.35 50.40 26.30Q49.50 25.25 47.25 25.25Q45.60 25.25 44.60 25.90Q43.60 26.55 43.05 27.60Q42.65 28.25 41.90 28.25L37.15 28.25Q36.60 28.25 36.30 27.93Q36 27.60 36.05 27.15Q36.05 26.30 36.70 25.15Q37.35 24 38.70 22.88Q40.05 21.75 42.15 21Q44.25 20.25 47.30 20.25Q50.45 20.25 52.70 21Q54.95 21.75 56.30 23.10Q57.65 24.45 58.30 26.22Q58.95 28 58.95 30.05L58.95 45.50Q58.95 46.05 58.60 46.40Q58.25 46.75 57.70 46.75L52.80 46.75Q52.30 46.75 51.95 46.40Q51.60 46.05 51.60 45.50L51.60 43.65Q50.95 44.60 49.85 45.42Q48.75 46.25 47.23 46.75Q45.70 47.25 43.65 47.25M45.65 42.05Q47.30 42.05 48.60 41.35Q49.90 40.65 50.65 39.20Q51.40 37.75 51.40 35.55L51.40 34.70L46.75 35.45Q44.05 35.90 42.80 36.80Q41.55 37.70 41.55 39Q41.55 39.95 42.13 40.65Q42.70 41.35 43.65 41.70Q44.60 42.05 45.65 42.05ZM74.55 47.25Q71.65 47.25 69.42 45.92Q67.20 44.60 65.97 42.08Q64.75 39.55 64.75 35.95L64.75 22Q64.75 21.45 65.10 21.10Q65.45 20.75 65.95 20.75L71.25 20.75Q71.80 20.75 72.15 21.10Q72.50 21.45 72.50 22L72.50 35.65Q72.50 41.25 77.40 41.25Q79.75 41.25 81.13 39.77Q82.50 38.30 82.50 35.65L82.50 22Q82.50 21.45 82.85 21.10Q83.20 20.75 83.75 20.75L89.05 20.75Q89.55 20.75 89.90 21.10Q90.25 21.45 90.25 22L90.25 45.50Q90.25 46.05 89.90 46.40Q89.55 46.75 89.05 46.75L84.15 46.75Q83.60 46.75 83.25 46.40Q82.90 46.05 82.90 45.50L82.90 43.55Q81.60 45.35 79.55 46.30Q77.50 47.25 74.55 47.25ZM97.80 46.75Q97.25 46.75 96.90 46.40Q96.55 46.05 96.55 45.50L96.55 12.50Q96.55 11.95 96.90 11.60Q97.25 11.25 97.80 11.25L102.80 11.25Q103.30 11.25 103.65 11.60Q104 11.95 104 12.50L104 45.50Q104 46.05 103.65 46.40Q103.30 46.75 102.80 46.75L97.80 46.75ZM122.80 46.75Q119.70 46.75 117.50 45.73Q115.30 44.70 114.18 42.55Q113.05 40.40 113.05 37.15L113.05 26.65L109.15 26.65Q108.60 26.65 108.25 26.30Q107.90 25.95 107.90 25.40L107.90 22Q107.90 21.45 108.25 21.10Q108.60 20.75 109.15 20.75L113.05 20.75L113.05 12.50Q113.05 11.95 113.43 11.60Q113.80 11.25 114.30 11.25L119.20 11.25Q119.75 11.25 120.10 11.60Q120.45 11.95 120.45 12.50L120.45 20.75L126.70 20.75Q127.20 20.75 127.55 21.10Q127.90 21.45 127.90 22L127.90 25.40Q127.90 25.95 127.55 26.30Q127.20 26.65 126.70 26.65L120.45 26.65L120.45 36.55Q120.45 38.45 121.13 39.52Q121.80 40.60 123.50 40.60L127.15 40.60Q127.65 40.60 128 40.95Q128.35 41.30 128.35 41.80L128.35 45.50Q128.35 46.05 128 46.40Q127.65 46.75 127.15 46.75L122.80 46.75Z" />
                    </g>
                </g>
            </g>
        </svg>

    </svg>


    <g transform="translate(168.75, 0)">
        <g transform="translate(-294.279999999999968, 0)">
            <path class="tw-fill-text-alt2" d="m304.87 145.51q7.8436 0 11.429 3.0814t3.5857 8.684q0 3.3055-1.5127 6.2189-1.4567 2.8573-4.9863 4.6502-3.4736 1.7928-9.4684 1.7928h-4.5941v15.575h-5.0423v-40.003zm-.44821 4.314h-5.0984v15.799h4.0339q5.7147 0 8.516-1.8489 2.8013-1.8488 2.8013-6.2749 0-3.8658-2.4652-5.7707-2.4651-1.9049-7.7876-1.9049zm34.456 5.1544q5.4906 0 8.1238 2.4091t2.6332 7.6756v20.449h-3.5857l-.95244-4.258h-.2241q-1.9609 2.4651-4.1459 3.6417-2.129 1.1765-5.9388 1.1765-4.0899 0-6.7792-2.129-2.6892-2.185-2.6892-6.7791 0-4.4821 3.5296-6.8912 3.5296-2.4651 10.869-2.6892l5.0984-.16808v-1.7928q0-3.7537-1.6248-5.2104t-4.5941-1.4567q-2.3531 0-4.4821.72834-2.129.67231-3.9778 1.5687l-1.5127-3.6977q1.9609-1.0645 4.6502-1.7928 2.6892-.78437 5.6026-.78437zm1.4567 16.023q-5.6026.2241-7.7876 1.7928-2.129 1.5687-2.129 4.426 0 2.5212 1.5127 3.6977 1.5687 1.1766 3.9778 1.1766 3.8098 0 6.3309-2.073 2.5212-2.129 2.5212-6.499v-2.6892zm38.154 6.2189q0 4.37-3.2495 6.6111-3.2495 2.241-8.7401 2.241-3.1375 0-5.4345-.50423-2.241-.50424-3.9778-1.4006v-4.4821q1.7928.89641 4.314 1.6808 2.5772.72834 5.2104.72834 3.7537 0 5.4345-1.1766 1.6808-1.2326 1.6808-3.2495 0-1.1205-.61628-2.0169-.61629-.89642-2.241-1.7928-1.5687-.89641-4.5381-2.0169-2.9134-1.1205-4.9863-2.241t-3.1935-2.6892-1.1205-4.0339q0-3.8098 3.0814-5.8827 3.1374-2.073 8.1798-2.073 2.7453 0 5.0984.56026 2.4091.50423 4.4821 1.4567l-1.6808 3.9218q-1.9049-.78436-3.9778-1.3446t-4.258-.56026q-3.0254 0-4.6502 1.0085-1.5687.95244-1.5687 2.6332 0 1.2326.72834 2.129.72834.84039 2.4091 1.6808 1.7368.78436 4.5941 1.9049 2.8573 1.0645 4.8743 2.185t3.0814 2.7453q1.0645 1.5687 1.0645 3.9778zm26.836 0q0 4.37-3.2495 6.6111t-8.74 2.241q-3.1375 0-5.4345-.50423-2.241-.50424-3.9778-1.4006v-4.4821q1.7928.89641 4.314 1.6808 2.5772.72834 5.2104.72834 3.7537 0 5.4345-1.1766 1.6808-1.2326 1.6808-3.2495 0-1.1205-.61629-2.0169-.61628-.89642-2.241-1.7928-1.5687-.89641-4.5381-2.0169-2.9134-1.1205-4.9863-2.241-2.073-1.1205-3.1935-2.6892t-1.1205-4.0339q0-3.8098 3.0814-5.8827 3.1375-2.073 8.1798-2.073 2.7453 0 5.0984.56026 2.4091.50423 4.4821 1.4567l-1.6808 3.9218q-1.9049-.78436-3.9778-1.3446t-4.258-.56026q-3.0254 0-4.6502 1.0085-1.5687.95244-1.5687 2.6332 0 1.2326.72833 2.129.72834.84039 2.4091 1.6808 1.7368.78436 4.5941 1.9049 2.8573 1.0645 4.8743 2.185 2.0169 1.1205 3.0814 2.7453 1.0645 1.5687 1.0645 3.9778zm26.668-8.684q-.72834-2.2971-1.2886-4.4821-.50424-2.241-.78437-3.4736h-.2241q-.2241 1.2326-.72834 3.4736-.50423 2.185-1.2886 4.5381l-5.3785 16.864h-5.6026l-8.2358-30.03h5.0984l4.1459 16.023q.61628 2.4091 1.1765 4.8743.56026 2.4651.78437 4.0899h.2241q.2241-.95245.50423-2.3531.33616-1.4006.72834-2.9134.39218-1.5687.78437-2.8013l5.3225-16.92h5.3785l5.1544 16.92q.61629 1.9049 1.1766 4.1459.61629 2.241.84039 3.8658h.2241q.16808-1.4006.72834-3.8658.61629-2.4652 1.2886-5.0423l4.202-16.023h5.0423l-8.3479 30.03h-5.7707zm50.76 1.9049q0 7.4515-3.8098 11.541-3.7537 4.0899-10.197 4.0899-3.9778 0-7.1153-1.7928-3.0814-1.8489-4.8743-5.3225-1.7928-3.5296-1.7928-8.516 0-7.4515 3.7537-11.485t10.197-4.0339q4.0899 0 7.1713 1.8488 3.1375 1.7928 4.8743 5.2664 1.7928 3.4176 1.7928 8.4039zm-22.691 0q0 5.3225 2.073 8.4599 2.129 3.0814 6.7231 3.0814 4.5381 0 6.6671-3.0814 2.129-3.1374 2.129-8.4599t-2.129-8.3479q-2.129-3.0254-6.7231-3.0254t-6.6671 3.0254q-2.073 3.0254-2.073 8.3479zm44.485-15.519q.84039 0 1.7928.11205 1.0085.056 1.7368.2241l-.61628 4.5381q-.72834-.16808-1.6248-.28013-.84039-.11205-1.6248-.11205-2.2971 0-4.314 1.2886-2.0169 1.2326-3.2495 3.5296-1.1766 2.241-1.1766 5.2664v16.023h-4.9303v-30.03h4.0339l.56026 5.4905h.2241q1.4567-2.4651 3.7537-4.258 2.2971-1.7928 5.4345-1.7928zm18.657 31.15q-5.6026 0-8.9642-3.8658-3.3616-3.9218-3.3616-11.653t3.3616-11.653q3.4176-3.9778 9.0202-3.9778 3.4736 0 5.6586 1.2886 2.241 1.2886 3.6417 3.1375h.33615q-.056-.72834-.2241-2.129-.11205-1.4567-.11205-2.2971v-11.99h4.9303v42.58h-3.9778l-.72834-4.0339h-.2241q-1.3446 1.9049-3.5857 3.2495-2.241 1.3446-5.7707 1.3446zm.78437-4.0899q4.7622 0 6.6671-2.5772 1.9609-2.6332 1.9609-7.8997v-.89641q0-5.6026-1.8488-8.572-1.8489-3.0254-6.8352-3.0254-3.9778 0-5.9948 3.1935-1.9609 3.1374-1.9609 8.4599 0 5.3785 1.9609 8.3479 2.0169 2.9694 6.0508 2.9694zm55.914 3.5296-13.166-35.072h-.2241q.16808 1.7368.28013 4.7062.11205 2.9134.11205 6.1068v24.259h-4.6502v-40.003h7.4515l12.326 32.775h.22411l12.55-32.775h7.3954v40.003h-4.9863v-24.595q0-2.9134.11205-5.7707.16808-2.8573.28013-4.6502h-.2241l-13.334 35.016zm43.868-30.534q5.4906 0 8.1238 2.4091t2.6332 7.6756v20.449h-3.5857l-.95244-4.258h-.22411q-1.9609 2.4651-4.1459 3.6417-2.129 1.1765-5.9388 1.1765-4.0899 0-6.7791-2.129-2.6892-2.185-2.6892-6.7791 0-4.4821 3.5296-6.8912 3.5296-2.4651 10.869-2.6892l5.0984-.16808v-1.7928q0-3.7537-1.6248-5.2104t-4.5941-1.4567q-2.3531 0-4.4821.72834-2.129.67231-3.9778 1.5687l-1.5127-3.6977q1.9609-1.0645 4.6502-1.7928 2.6892-.78437 5.6026-.78437zm1.4567 16.023q-5.6026.2241-7.7876 1.7928-2.129 1.5687-2.129 4.426 0 2.5212 1.5127 3.6977 1.5687 1.1766 3.9778 1.1766 3.8098 0 6.3309-2.073 2.5212-2.129 2.5212-6.499v-2.6892zm33.055-16.079q5.3785 0 8.1238 2.6332 2.7453 2.5772 2.7453 8.4039v19.553h-4.8743v-19.217q0-7.2274-6.7231-7.2274-4.9863 0-6.8912 2.8013t-1.9049 8.0677v15.575h-4.9303v-30.03h3.9778l.72834 4.0899h.28013q1.4567-2.3531 4.0339-3.4736 2.5772-1.1765 5.4345-1.1765zm31.543.056q5.4906 0 8.1238 2.4091t2.6332 7.6756v20.449h-3.5857l-.95245-4.258h-.2241q-1.9609 2.4651-4.1459 3.6417-2.129 1.1765-5.9388 1.1765-4.0899 0-6.7792-2.129-2.6892-2.185-2.6892-6.7791 0-4.4821 3.5296-6.8912 3.5296-2.4651 10.869-2.6892l5.0984-.16808v-1.7928q0-3.7537-1.6248-5.2104t-4.5941-1.4567q-2.3531 0-4.4821.72834-2.129.67231-3.9778 1.5687l-1.5127-3.6977q1.9609-1.0645 4.6502-1.7928 2.6892-.78437 5.6026-.78437zm1.4567 16.023q-5.6026.2241-7.7876 1.7928-2.129 1.5687-2.129 4.426 0 2.5212 1.5127 3.6977 1.5687 1.1766 3.9778 1.1766 3.8098 0 6.3309-2.073 2.5212-2.129 2.5212-6.499v-2.6892zm29.246-16.079q2.9694 0 5.3225 1.1205 2.4091 1.1205 4.0899 3.4176h.28013l.67231-3.9778h3.9218v30.534q0 6.443-3.3055 9.6925-3.2495 3.2495-10.141 3.2495-6.6111 0-10.813-1.9049v-4.5381q4.426 2.3531 11.093 2.3531 3.8658 0 6.0508-2.2971 2.241-2.241 2.241-6.1629v-1.1766q0-.67231.056-1.9049.056-1.2886.11205-1.7928h-.2241q-3.0254 4.5381-9.3003 4.5381-5.8267 0-9.1322-4.0899-3.2495-4.0899-3.2495-11.429 0-7.1713 3.2495-11.373 3.3055-4.258 9.0762-4.258zm.67232 4.1459q-3.7538 0-5.8267 3.0254-2.073 2.9694-2.073 8.516t2.0169 8.516q2.073 2.9134 5.9948 2.9134 4.5381 0 6.6111-2.4091 2.073-2.4651 2.073-7.8997v-1.1766q0-6.1629-2.129-8.7961-2.129-2.6892-6.6671-2.6892zm34.736-4.1459q3.8658 0 6.6111 1.6808 2.8013 1.6808 4.258 4.7622 1.5127 3.0254 1.5127 7.1153v2.9694h-20.562q.11206 5.0984 2.5772 7.7876 2.5212 2.6332 7.0032 2.6332 2.8573 0 5.0423-.50423 2.241-.56026 4.5941-1.5687v4.314q-2.2971 1.0085-4.5381 1.4567-2.241.50423-5.3225.50423-4.258 0-7.5635-1.7368-3.2495-1.7368-5.0984-5.1544-1.7928-3.4736-1.7928-8.4599 0-4.9303 1.6248-8.4599 1.6808-3.5296 4.6502-5.4345 3.0254-1.9049 7.0032-1.9049zm-.056 4.0339q-3.5296 0-5.6026 2.2971-2.0169 2.241-2.4091 6.2749h15.295q-.056-3.8098-1.7928-6.1629-1.7368-2.4091-5.4906-2.4091zm34.064-4.0339q.84039 0 1.7928.11205 1.0085.056 1.7368.2241l-.61629 4.5381q-.72834-.16808-1.6248-.28013-.84039-.11205-1.6248-.11205-2.2971 0-4.314 1.2886-2.0169 1.2326-3.2495 3.5296-1.1765 2.241-1.1765 5.2664v16.023h-4.9303v-30.03h4.0339l.56026 5.4905h.22411q1.4567-2.4651 3.7537-4.258 2.2971-1.7928 5.4345-1.7928z"/>
        </g>
    </g>

</svg>
