<svg version="1.1" viewBox="0 0 800 200" xmlns="http://www.w3.org/2000/svg">
    <svg xmlns="http://www.w3.org/2000/svg" width="569.8437690734863125" height="150" viewBox="0 0 30.39166768391927 8">

        <path
            d="
            M0 0 h1 v1 h-1
            M3 0 h2 v1 h-2
            M7 0 h1 v1 h-1
            M0 7 h1 v1 h-1
            M7 7 h1 v1 h-1
        z"
            fill="rgb(0, 0, 0)" shape-rendering="crispEdges" />

        <path
            d="
            M1 0 h2 v1 h-2
            M5 0 h2 v1 h-2
            M0 1 h1 v1 h-1
            M3 1 h2 v1 h-2
            M7 1 h1 v1 h-1
            M0 4 h1 v3 h-1
            M7 4 h1 v3 h-1
            M1 7 h1 v1 h-1
            M3 7 h2 v1 h-2
            M6 7 h1 v1 h-1
        z"
            fill="rgb(0, 0, 72)" shape-rendering="crispEdges" />

        <path
            d="
            M1 1 h2 v1 h-2
            M5 1 h2 v1 h-2
            M0 2 h1 v2 h-1
            M3 2 h2 v2 h-2
            M7 2 h1 v2 h-1
            M1 4 h2 v1 h-1 v2 h-1
            M7 4 h-2 v1 h1 v2 h1
            M3 6 h2 v1 h-2
            M2 7 h1 v1 h-1
            M5 7 h1 v1 h-1
        z"
            fill="rgb(0, 0, 193)" shape-rendering="crispEdges" />

        <path
            d="
            M1 2 h2 v2 h-2
            M5 2 h2 v2 h-2
            M3 4 h2 v2 h-2 M5 5 h1 v2 h-1 M2 5 h1 v2 h-1
        z"
            fill="rgb(0, 255, 255)" shape-rendering="crispEdges" />

        <svg xmlns="http://www.w3.org/2000/svg" x="9" y="1" width="21.39166768391927" height="6" viewBox="0 11.25 128.35000610351562 36" data-asc="0.935">
            <defs />
            <g>
                <g class="tw-fill-text-alt2">
                    <g class="tw-fill-text-alt2" transform="translate(0, 0)">
                        <path
                            d="M12.50 46.75Q11.70 46.75 11.22 46.33Q10.75 45.90 10.55 45.30L0.05 13.25Q0 13 0 12.80Q0 12.40 0.30 12.07Q0.60 11.75 1.05 11.75L6.30 11.75Q7.05 11.75 7.48 12.17Q7.90 12.60 8 12.95L15.80 37.40L23.55 12.95Q23.70 12.60 24.10 12.17Q24.50 11.75 25.25 11.75L30.50 11.75Q30.95 11.75 31.25 12.07Q31.55 12.40 31.55 12.80Q31.55 13 31.50 13.25L21 45.30Q20.85 45.90 20.38 46.33Q19.90 46.75 19.05 46.75L12.50 46.75ZM43.65 47.25Q41 47.25 38.90 46.23Q36.80 45.20 35.55 43.45Q34.30 41.70 34.30 39.55Q34.30 36 37.18 33.95Q40.05 31.90 44.75 31.15L51.30 30.20L51.30 29.30Q51.30 27.35 50.40 26.30Q49.50 25.25 47.25 25.25Q45.60 25.25 44.60 25.90Q43.60 26.55 43.05 27.60Q42.65 28.25 41.90 28.25L37.15 28.25Q36.60 28.25 36.30 27.93Q36 27.60 36.05 27.15Q36.05 26.30 36.70 25.15Q37.35 24 38.70 22.88Q40.05 21.75 42.15 21Q44.25 20.25 47.30 20.25Q50.45 20.25 52.70 21Q54.95 21.75 56.30 23.10Q57.65 24.45 58.30 26.22Q58.95 28 58.95 30.05L58.95 45.50Q58.95 46.05 58.60 46.40Q58.25 46.75 57.70 46.75L52.80 46.75Q52.30 46.75 51.95 46.40Q51.60 46.05 51.60 45.50L51.60 43.65Q50.95 44.60 49.85 45.42Q48.75 46.25 47.23 46.75Q45.70 47.25 43.65 47.25M45.65 42.05Q47.30 42.05 48.60 41.35Q49.90 40.65 50.65 39.20Q51.40 37.75 51.40 35.55L51.40 34.70L46.75 35.45Q44.05 35.90 42.80 36.80Q41.55 37.70 41.55 39Q41.55 39.95 42.13 40.65Q42.70 41.35 43.65 41.70Q44.60 42.05 45.65 42.05ZM74.55 47.25Q71.65 47.25 69.42 45.92Q67.20 44.60 65.97 42.08Q64.75 39.55 64.75 35.95L64.75 22Q64.75 21.45 65.10 21.10Q65.45 20.75 65.95 20.75L71.25 20.75Q71.80 20.75 72.15 21.10Q72.50 21.45 72.50 22L72.50 35.65Q72.50 41.25 77.40 41.25Q79.75 41.25 81.13 39.77Q82.50 38.30 82.50 35.65L82.50 22Q82.50 21.45 82.85 21.10Q83.20 20.75 83.75 20.75L89.05 20.75Q89.55 20.75 89.90 21.10Q90.25 21.45 90.25 22L90.25 45.50Q90.25 46.05 89.90 46.40Q89.55 46.75 89.05 46.75L84.15 46.75Q83.60 46.75 83.25 46.40Q82.90 46.05 82.90 45.50L82.90 43.55Q81.60 45.35 79.55 46.30Q77.50 47.25 74.55 47.25ZM97.80 46.75Q97.25 46.75 96.90 46.40Q96.55 46.05 96.55 45.50L96.55 12.50Q96.55 11.95 96.90 11.60Q97.25 11.25 97.80 11.25L102.80 11.25Q103.30 11.25 103.65 11.60Q104 11.95 104 12.50L104 45.50Q104 46.05 103.65 46.40Q103.30 46.75 102.80 46.75L97.80 46.75ZM122.80 46.75Q119.70 46.75 117.50 45.73Q115.30 44.70 114.18 42.55Q113.05 40.40 113.05 37.15L113.05 26.65L109.15 26.65Q108.60 26.65 108.25 26.30Q107.90 25.95 107.90 25.40L107.90 22Q107.90 21.45 108.25 21.10Q108.60 20.75 109.15 20.75L113.05 20.75L113.05 12.50Q113.05 11.95 113.43 11.60Q113.80 11.25 114.30 11.25L119.20 11.25Q119.75 11.25 120.10 11.60Q120.45 11.95 120.45 12.50L120.45 20.75L126.70 20.75Q127.20 20.75 127.55 21.10Q127.90 21.45 127.90 22L127.90 25.40Q127.90 25.95 127.55 26.30Q127.20 26.65 126.70 26.65L120.45 26.65L120.45 36.55Q120.45 38.45 121.13 39.52Q121.80 40.60 123.50 40.60L127.15 40.60Q127.65 40.60 128 40.95Q128.35 41.30 128.35 41.80L128.35 45.50Q128.35 46.05 128 46.40Q127.65 46.75 127.15 46.75L122.80 46.75Z" />
                    </g>
                </g>
            </g>
        </svg>

    </svg>

    <g transform="translate(168.75, 0)">
        <g transform="translate(-375.67, 0)">
            <path class="tw-fill-text-alt2" d="m406.1 185.44-4.8026-12.342h-15.803l-4.7468 12.342h-5.0817l15.58-40.04h4.5232l15.524 40.04zm-10.778-28.871q-.16753-.44674-.55844-1.6194-.3909-1.1727-.7818-2.4012-.33505-1.2844-.55843-1.9545-.39091 1.7312-.89345 3.4064-.50261 1.6194-.83768 2.5687l-4.5233 12.062h12.62zm31.384 29.429q-5.5844 0-8.9346-3.8532-3.3506-3.9091-3.3506-11.615t3.3506-11.615q3.4064-3.9649 8.9905-3.9649 3.4623 0 5.6402 1.2844 2.2338 1.2844 3.6298 3.1271h.33506q-.0559-.72595-.22337-2.122-.11169-1.4518-.11169-2.2895v-11.951h4.9142v42.441h-3.9649l-.72593-4.0207h-.22339q-1.3403 1.8987-3.574 3.2389-2.2338 1.3402-5.7519 1.3402zm.7818-4.0765q4.7468 0 6.6452-2.5687 1.9545-2.6246 1.9545-7.8738v-.89347q0-5.5844-1.8428-8.544-1.8428-3.0155-6.8127-3.0155-3.9649 0-5.975 3.1831-1.9545 3.1272-1.9545 8.4322 0 5.3609 1.9545 8.3206 2.0103 2.9597 6.0309 2.9597zm55.788-26.972q5.0817 0 7.5946 2.6246 2.5129 2.5687 2.5129 8.3764v19.489h-4.8584v-19.266q0-7.092-6.0867-7.092-4.3558 0-6.2542 2.5129-1.8428 2.5129-1.8428 7.3154v16.529h-4.8584v-19.266q0-7.092-6.1426-7.092-4.5232 0-6.2542 2.7922-1.7312 2.7922-1.7312 8.0414v15.524h-4.9142v-29.933h3.9649l.72595 4.0766h.27922q1.3961-2.3454 3.7416-3.4623 2.4012-1.1727 5.0817-1.1727 7.0362 0 9.1582 5.0258h.27921q1.5078-2.5687 4.0766-3.7974 2.6246-1.2286 5.5284-1.2286zm21.891-10.666q1.1169 0 1.9545.78178.89355.72598.89355 2.3454 0 1.5636-.89355 2.3454-.83765.78179-1.9545.78179-1.2286 0-2.0662-.78179-.83766-.7818-.83766-2.3454 0-1.6194.83766-2.3454.83763-.78178 2.0662-.78178zm2.4012 11.225v29.933h-4.9141v-29.933zm23.901-.55843q5.3609 0 8.0972 2.6246 2.7363 2.5687 2.7363 8.3765v19.489h-4.8584v-19.154q0-7.2037-6.701-7.2037-4.97 0-6.8686 2.7922-1.8987 2.7922-1.8987 8.0414v15.524h-4.9142v-29.933h3.9649l.72596 4.0766h.27921q1.4519-2.3454 4.0207-3.4623 2.5687-1.1727 5.4167-1.1727zm52.381-5.5285q-6.4218 0-10.108 4.3-3.6857 4.3-3.6857 11.783 0 7.4271 3.4064 11.783 3.4623 4.3 10.331 4.3 2.6246 0 4.97-.44675 2.3454-.44675 4.5792-1.1169v4.3558q-2.2337.83766-4.635 1.2286-2.3454.3909-5.6402.3909-6.0867 0-10.163-2.5129-4.0768-2.5129-6.1426-7.1479-2.0103-4.635-2.0103-10.889 0-6.0309 2.1778-10.61 2.2337-4.6351 6.5335-7.2037 4.3-2.6246 10.443-2.6246 6.3101 0 11.001 2.3454l-2.0103 4.2441q-1.8428-.83766-4.1325-1.5078-2.2337-.67011-4.9141-.67011zm43.558 20.997q0 7.4271-3.7974 11.503-3.7416 4.0765-10.163 4.0765-3.9649 0-7.092-1.787-3.0713-1.8428-4.8584-5.3051-1.787-3.5181-1.787-8.4881 0-7.4271 3.7416-11.448 3.7416-4.0207 10.163-4.0207 4.0765 0 7.1479 1.8428 3.1271 1.787 4.8584 5.2492 1.787 3.4064 1.787 8.3764zm-22.617 0q0 5.3051 2.0662 8.4322 2.122 3.0714 6.701 3.0714 4.5233 0 6.6452-3.0714 2.122-3.1271 2.122-8.4322t-2.122-8.3206q-2.122-3.0155-6.701-3.0155-4.5792 0-6.6452 3.0155-2.0662 3.0155-2.0662 8.3206zm44.786-15.468q5.361 0 8.0973 2.6246 2.7363 2.5687 2.7363 8.3765v19.489h-4.8584v-19.154q0-7.2037-6.701-7.2037-4.97 0-6.8685 2.7922-1.8987 2.7922-1.8987 8.0414v15.524h-4.9142v-29.933h3.9649l.72597 4.0765h.2792q1.4519-2.3454 4.0207-3.4623 2.5687-1.1727 5.4168-1.1727zm39.593 22.225q0 4.3558-3.2389 6.5894-3.2389 2.2338-8.7119 2.2338-3.1271 0-5.4168-.5026-2.2338-.50258-3.9649-1.396v-4.4675q1.787.89346 4.3 1.6753 2.5687.72594 5.1934.72594 3.7416 0 5.4168-1.1727 1.6752-1.2286 1.6752-3.2389 0-1.1169-.61424-2.0103-.61426-.89347-2.2337-1.787-1.5636-.89346-4.5233-2.0103-2.9039-1.1169-4.97-2.2337-2.0662-1.1169-3.1831-2.6805-1.1169-1.5636-1.1169-4.0208 0-3.7974 3.0714-5.8635 3.1272-2.0662 8.153-2.0662 2.7363 0 5.0818.55842 2.4012.50259 4.4675 1.4519l-1.6752 3.9091q-1.8987-.78179-3.9649-1.3403-2.0662-.55842-4.2441-.55842-3.0155 0-4.6351 1.0052-1.5636.94937-1.5636 2.6246 0 1.2286.72596 2.122.72595.83764 2.4012 1.6753 1.7311.78179 4.5792 1.8987 2.848 1.061 4.8584 2.1779 2.0104 1.1169 3.0713 2.7363 1.0611 1.5636 1.0611 3.9649zm33.283-6.7569q0 7.4271-3.7974 11.503-3.7416 4.0766-10.163 4.0766-3.9649 0-7.092-1.787-3.0714-1.8428-4.8583-5.3051-1.787-3.5181-1.787-8.4881 0-7.4271 3.7416-11.448 3.7416-4.0207 10.163-4.0207 4.0766 0 7.1479 1.8428 3.1271 1.787 4.8584 5.2492 1.787 3.4064 1.787 8.3764zm-22.617 0q0 5.3051 2.0662 8.4322 2.122 3.0714 6.701 3.0714 4.5233 0 6.6452-3.0714 2.122-3.1271 2.122-8.4322 0-5.3051-2.122-8.3206-2.122-3.0155-6.701-3.0155t-6.6452 3.0155q-2.0662 3.0155-2.0662 8.3206zm35.293 15.022h-4.9142v-42.441h4.9142zm21.053-30.491q3.8532 0 6.5894 1.6753 2.7922 1.6754 4.2441 4.7468 1.5078 3.0155 1.5078 7.092v2.9597h-20.494q.11169 5.0818 2.5687 7.7621 2.5129 2.6246 6.9803 2.6246 2.848 0 5.0259-.50258 2.2337-.55844 4.5792-1.5636v4.3q-2.2895 1.0052-4.5233 1.4519-2.2337.5026-5.3051.5026-4.2441 0-7.5388-1.7312-3.2389-1.7312-5.0817-5.1376-1.787-3.4623-1.787-8.4322 0-4.9142 1.6194-8.4322 1.6754-3.5181 4.635-5.4168 3.0155-1.8986 6.9803-1.8986zm-.0559 4.0207q-3.5181 0-5.5844 2.2895-2.0103 2.2337-2.4012 6.2543h15.245q-.0559-3.7974-1.787-6.1426-1.7311-2.4012-5.4726-2.4012z" stroke-width=".93783"/>
        </g>
    </g>
</svg>
